<?xml version="1.0" encoding="utf-8"?>
<!-- Generator: Adobe Illustrator 19.2.1, SVG Export Plug-In . SVG Version: 6.00 Build 0)  -->
<svg version="1.1" xmlns="http://www.w3.org/2000/svg" xmlns:xlink="http://www.w3.org/1999/xlink" x="0px" y="0px"
	 viewBox="0 0 500 500" style="enable-background:new 0 0 500 500;" xml:space="preserve">
<style type="text/css">
	.st0{fill:none;stroke:#000000;stroke-width:6;stroke-miterlimit:10;}
	.st1{fill:#7E52A1;stroke:#7E52A1;stroke-width:6;stroke-miterlimit:10;}
	.st2{stroke:#000000;stroke-width:6;stroke-miterlimit:10;}
</style>
<g id="Layer_1">
	<path class="st0" d="M317.5,172c-31.2-10-65-16.2-98.2-12.3c-31.6,3.7-60.9,16.5-86.1,32.8s-46.9,36-68.4,55.6
		c11,28.8,29.7,56.3,58.2,75c25.3,16.6,57.2,25.4,89.3,27.7c32.1,2.2,64.4-1.8,95.5-8.9c18-4.1,35.8-9.3,51.4-17.8
		c29.2-15.7,45.3-40.5,52.4-68.2c2.8-11,6.7-19.7-1.1-29.8c-9.4-12.1-24.2-22.1-38.2-30.3C355.4,185.9,336.8,178.2,317.5,172z"/>
	<path class="st0" d="M110.3,206.2c-22.4-33.7-44.9-67.3-67.3-101"/>
	<path class="st0" d="M145.1,181c-15-31.2-32.6-61.2-52.5-89.6"/>
	<path class="st0" d="M182.5,165.1c-11.1-30.8-22.2-61.5-33.3-92.3"/>
	<path class="st0" d="M212,159.4c2.8-33.2,1.4-66.8-4.2-99.6"/>
	<path class="st0" d="M238.5,157.9c0.6-35,1.1-69.9,1.7-104.9"/>
	<path class="st0" d="M266.6,157.4c7.1-32,14.1-64.1,21.2-96.1"/>
	<path class="st0" d="M288.5,162.8c20.7-29.3,37.9-61,51.3-94.3"/>
	<path class="st0" d="M322.3,170.2c18.9-32.4,37.8-64.9,56.6-97.3"/>
	<path class="st0" d="M352.1,182.8c18.2-33.8,36.4-67.6,54.6-101.3"/>
	<path class="st0" d="M377.4,199c28-27.7,48.5-61.8,59.1-98.4"/>
	<path class="st0" d="M401.4,218.6c19.2-31.7,38.4-63.4,57.6-95.1"/>
	<path class="st0" d="M142.8,334.5c-3.4,22.4-10.2,44.4-19.9,64.9"/>
	<path class="st0" d="M202.8,351.8c-0.8,21.7-4.4,43.3-10.7,64.1"/>
	<path class="st0" d="M253.9,354.1c0.3,22.1,0.6,44.3,0.9,66.4"/>
	<path class="st0" d="M300.3,345.2c7.3,20.1,12.1,41.1,14.3,62.4"/>
	<path class="st0" d="M341.7,331.3c14.8,16,27.1,34.2,36.4,53.9"/>
</g>
<g id="Layer_2">
	<ellipse class="st1" cx="247.2" cy="252.8" rx="76.1" ry="81.7"/>
</g>
<g id="Layer_3">
	<circle class="st2" cx="247.2" cy="252.8" r="40.6"/>
</g>
</svg>
